<?xml version="1.0" standalone="no"?>
<!DOCTYPE svg PUBLIC "-//W3C//DTD SVG 20010904//EN"
 "http://www.w3.org/TR/2001/REC-SVG-20010904/DTD/svg10.dtd">
<svg version="1.0" xmlns="http://www.w3.org/2000/svg"
 width="700.000000pt" height="700.000000pt" viewBox="0 0 700.000000 700.000000"
 preserveAspectRatio="xMidYMid meet">
<metadata>
Created by potrace 1.14, written by Peter Selinger 2001-2017
</metadata>
<g transform="translate(0.000000,700.000000) scale(0.100000,-0.100000)"
fill="#000000" stroke="none">
<path d="M437 6562 l-437 -437 341 -455 c187 -250 349 -466 360 -480 11 -14
153 -203 316 -420 l296 -395 424 0 423 0 728 -728 c400 -400 726 -731 725
-735 -2 -4 -16 -44 -33 -90 -16 -45 -32 -93 -34 -105 -3 -12 -7 -33 -11 -47
-19 -86 -25 -240 -12 -330 15 -103 21 -129 49 -210 35 -101 82 -188 147 -274
49 -64 1659 -1681 1742 -1748 169 -139 439 -141 612 -6 23 18 218 208 432 423
401 400 431 435 470 550 24 68 28 206 9 277 -38 147 -7 112 -943 1049 -879
878 -914 911 -1056 982 -77 38 -208 78 -298 92 -96 14 -251 12 -334 -5 -69
-13 -206 -56 -243 -75 -26 -14 -31 -9 -755 715 l-730 730 0 424 0 425 -45 33
c-25 18 -51 38 -58 45 -7 7 -17 13 -20 13 -4 0 -18 10 -32 23 -14 12 -122 94
-240 183 -241 180 -1131 846 -1170 875 -14 11 -56 43 -95 72 -38 29 -75 56
-81 59 -5 4 -207 -190 -447 -430z"/>
<path d="M4630 6984 c-88 -11 -118 -16 -177 -28 -12 -3 -66 -16 -120 -31 -359
-95 -699 -297 -967 -575 -138 -144 -327 -413 -310 -442 4 -6 7 -208 7 -449 l0
-439 200 -200 c110 -110 202 -199 203 -197 2 1 -2 23 -8 47 -13 59 -18 317 -7
400 15 106 17 122 38 200 67 253 183 453 372 640 129 128 142 138 263 214 160
100 359 174 546 201 111 16 220 24 220 15 0 -3 -174 -179 -386 -390 l-385
-385 6 -50 c4 -27 8 -61 10 -75 3 -23 40 -239 51 -300 2 -14 7 -41 10 -60 2
-19 7 -47 10 -62 3 -15 7 -42 9 -60 3 -18 7 -46 11 -61 3 -16 7 -38 9 -50 7
-53 86 -521 88 -523 2 -2 330 -58 402 -68 23 -4 52 -8 65 -11 26 -5 193 -33
245 -41 17 -3 37 -7 45 -9 8 -2 35 -6 60 -9 25 -3 56 -8 70 -11 14 -3 54 -10
90 -16 111 -17 125 -20 140 -24 8 -2 40 -7 70 -10 l55 -6 385 386 c212 212
388 385 391 385 8 0 1 -110 -16 -240 -9 -64 -61 -251 -86 -307 -95 -213 -197
-363 -341 -502 -70 -67 -191 -161 -208 -161 -5 0 -10 -3 -10 -8 0 -4 -9 -12
-20 -17 -40 -21 -165 -88 -169 -91 -2 -2 11 -16 30 -31 18 -15 129 -124 246
-241 l213 -212 58 37 c53 35 142 100 202 148 39 31 242 235 283 285 124 148
281 428 346 614 35 99 81 256 86 296 2 14 11 70 21 125 18 107 27 445 13 519
-4 23 -10 68 -13 100 -9 90 -53 254 -83 308 -42 77 -126 159 -204 196 -156 75
-339 64 -478 -31 -24 -16 -231 -216 -459 -444 l-416 -414 -41 5 c-22 4 -51 8
-65 11 -14 3 -95 17 -180 31 -85 14 -155 27 -156 27 -1 1 -6 34 -12 72 -7 39
-14 81 -17 95 -3 14 -7 41 -10 60 -3 19 -7 46 -10 60 -3 14 -7 41 -10 60 -3
19 -7 48 -10 64 -6 28 20 56 423 460 308 310 435 445 454 481 99 189 64 423
-86 568 -88 87 -221 137 -431 163 -27 4 -54 9 -59 12 -19 11 -405 9 -496 -4z"/>
<path d="M1199 2783 c-602 -604 -979 -989 -1001 -1023 -87 -136 -134 -244
-169 -386 -27 -108 -32 -347 -10 -459 35 -175 119 -360 225 -493 20 -25 151
-157 174 -175 156 -122 365 -213 542 -235 81 -10 294 -7 360 6 164 31 323 99
457 195 45 33 342 322 794 773 l721 721 -39 74 c-21 41 -49 99 -62 129 -12 30
-26 64 -31 75 -28 68 -64 233 -76 355 -3 36 -8 67 -10 69 -2 2 -374 -365 -826
-817 -453 -451 -834 -829 -848 -840 -77 -60 -195 -92 -312 -86 -160 8 -316
110 -384 251 -68 142 -61 314 17 443 15 25 451 468 968 985 l941 940 -233 233
-232 232 -966 -967z"/>
</g>
</svg>
